<svg width="436" height="97" viewBox="0 0 436 97" fill="none" xmlns="http://www.w3.org/2000/svg">
<path d="M365.307 11.9092V1.90918H435.125V11.9092H405.852V95.0001H394.58V11.9092H365.307Z" fill="white"/>
<path d="M336.614 1.90918H347.886V63.5455C347.886 69.9092 346.386 75.591 343.386 80.591C340.417 85.5607 336.22 89.4849 330.795 92.3637C325.371 95.2122 319.008 96.6365 311.705 96.6365C304.401 96.6365 298.038 95.2122 292.614 92.3637C287.189 89.4849 282.977 85.5607 279.977 80.591C277.008 75.591 275.523 69.9092 275.523 63.5455V1.90918H286.795V62.6365C286.795 67.1819 287.795 71.2274 289.795 74.7728C291.795 78.288 294.644 81.0607 298.341 83.091C302.068 85.091 306.523 86.091 311.705 86.091C316.886 86.091 321.341 85.091 325.068 83.091C328.795 81.0607 331.644 78.288 333.614 74.7728C335.614 71.2274 336.614 67.1819 336.614 62.6365V1.90918Z" fill="white"/>
<path d="M256.568 48.4547C256.568 58.2728 254.796 66.7577 251.25 73.9092C247.705 81.0607 242.841 86.5759 236.659 90.4547C230.477 94.3334 223.417 96.2728 215.477 96.2728C207.538 96.2728 200.477 94.3334 194.296 90.4547C188.114 86.5759 183.25 81.0607 179.705 73.9092C176.159 66.7577 174.386 58.2728 174.386 48.4547C174.386 38.6365 176.159 30.1516 179.705 23.0001C183.25 15.8486 188.114 10.3334 194.296 6.45466C200.477 2.57587 207.538 0.636475 215.477 0.636475C223.417 0.636475 230.477 2.57587 236.659 6.45466C242.841 10.3334 247.705 15.8486 251.25 23.0001C254.796 30.1516 256.568 38.6365 256.568 48.4547ZM245.659 48.4547C245.659 40.3941 244.311 33.591 241.614 28.0456C238.947 22.5001 235.326 18.3031 230.75 15.4547C226.205 12.6062 221.114 11.1819 215.477 11.1819C209.841 11.1819 204.735 12.6062 200.159 15.4547C195.614 18.3031 191.993 22.5001 189.296 28.0456C186.629 33.591 185.296 40.3941 185.296 48.4547C185.296 56.5153 186.629 63.3183 189.296 68.8637C191.993 74.4092 195.614 78.6062 200.159 81.4547C204.735 84.3031 209.841 85.7274 215.477 85.7274C221.114 85.7274 226.205 84.3031 230.75 81.4547C235.326 78.6062 238.947 74.4092 241.614 68.8637C244.311 63.3183 245.659 56.5153 245.659 48.4547Z" fill="white"/>
<path d="M94.7727 95.0001V1.90918H127.318C133.803 1.90918 139.152 3.03039 143.364 5.27282C147.576 7.48494 150.712 10.4698 152.773 14.2274C154.833 17.9546 155.864 22.091 155.864 26.6365C155.864 30.6365 155.151 33.9395 153.727 36.5455C152.333 39.1516 150.485 41.2122 148.182 42.7274C145.909 44.2425 143.439 45.3637 140.773 46.091V47.0001C143.621 47.1819 146.485 48.1819 149.364 50.0001C152.242 51.8183 154.651 54.4243 156.591 57.8183C158.53 61.2122 159.5 65.3637 159.5 70.2728C159.5 74.9395 158.439 79.1365 156.318 82.8637C154.197 86.591 150.848 89.5455 146.273 91.7274C141.697 93.9092 135.742 95.0001 128.409 95.0001H94.7727ZM106.045 85.0001H128.409C135.773 85.0001 141 83.5758 144.091 80.7274C147.212 77.8486 148.773 74.3637 148.773 70.2728C148.773 67.1213 147.97 64.2122 146.364 61.5455C144.758 58.8486 142.47 56.6971 139.5 55.091C136.53 53.4546 133.015 52.6365 128.955 52.6365H106.045V85.0001ZM106.045 42.8183H126.955C130.348 42.8183 133.409 42.1516 136.136 40.8183C138.894 39.4849 141.076 37.6062 142.682 35.1819C144.318 32.7577 145.136 29.9092 145.136 26.6365C145.136 22.5455 143.712 19.0758 140.864 16.2274C138.015 13.3486 133.5 11.9092 127.318 11.9092H106.045V42.8183Z" fill="white"/>
<path d="M12.0909 95.0001H0.272705L34.4545 1.90918H46.0909L80.2727 95.0001H68.4545L40.6363 16.6365H39.9091L12.0909 95.0001ZM16.4545 58.6365H64.0909V68.6365H16.4545V58.6365Z" fill="white"/>
</svg>
