<svg width="407" height="303" viewBox="0 0 407 303" fill="none" xmlns="http://www.w3.org/2000/svg">
<path d="M26.1495 54C29.4429 54 32.3029 54.91 34.7295 56.73C37.1562 58.55 38.9762 60.9767 40.1895 64.01C41.4895 66.9567 42.1395 70.0767 42.1395 73.37C42.1395 78.6567 40.6229 83.2067 37.5895 87.02C34.5562 90.7467 30.2229 92.5233 24.5895 92.35H13.7995V150.2C13.8862 152.8 14.2329 154.533 14.8395 155.4C15.4462 156.18 16.6595 156.613 18.4795 156.7L18.2195 158H2.87953L2.61953 156.7C4.43953 156.613 5.65286 156.18 6.25953 155.4C6.8662 154.533 7.21286 152.8 7.29953 150.2V61.8C7.21286 59.2 6.8662 57.51 6.25953 56.73C5.65286 55.8633 4.43953 55.3867 2.61953 55.3L2.87953 54H26.1495ZM22.6395 91.05C26.5395 91.05 29.5295 89.3167 31.6095 85.85C33.7762 82.3833 34.8595 78.2233 34.8595 73.37C34.8595 68.6033 33.8629 64.4433 31.8695 60.89C29.9629 57.25 27.3195 55.3867 23.9395 55.3H18.4795C16.6595 55.3867 15.4462 55.8633 14.8395 56.73C14.2329 57.51 13.8862 59.2 13.7995 61.8V91.05H22.6395ZM72.6266 52.83C78.8666 52.83 83.3299 54.78 86.0166 58.68C88.7899 62.58 90.1766 68.6033 90.1766 76.75V134.86C90.1766 143.007 88.7899 149.03 86.0166 152.93C83.3299 156.83 78.8666 158.78 72.6266 158.78C66.6466 158.78 62.2699 156.96 59.4966 153.32C56.7232 149.593 55.2499 143.873 55.0766 136.16V76.75C55.0766 68.6033 56.4632 62.58 59.2366 58.68C62.0099 54.78 66.4732 52.83 72.6266 52.83ZM83.6766 76.75C83.6766 71.29 83.3732 67 82.7666 63.88C82.2466 60.6733 81.2066 58.2467 79.6466 56.6C78.0866 54.9533 75.7466 54.13 72.6266 54.13C69.5066 54.13 67.1232 54.9533 65.4766 56.6C63.9166 58.16 62.8332 60.5433 62.2266 63.75C61.7066 66.9567 61.4899 71.29 61.5766 76.75V136.16C61.4899 143.787 62.1832 149.247 63.6566 152.54C65.2166 155.833 68.2066 157.48 72.6266 157.48C75.7466 157.48 78.0866 156.657 79.6466 155.01C81.2066 153.363 82.2466 150.98 82.7666 147.86C83.3732 144.653 83.6766 140.32 83.6766 134.86V76.75ZM141.142 158H125.802L125.152 156.7C126.452 156.613 127.362 156.397 127.882 156.05C128.488 155.617 128.792 154.923 128.792 153.97C128.792 153.623 128.705 152.93 128.532 151.89L114.232 92.35H110.462V150.2C110.548 152.8 110.895 154.533 111.502 155.4C112.108 156.18 113.322 156.613 115.142 156.7L114.882 158H99.5416L99.2816 156.7C101.102 156.613 102.315 156.18 102.922 155.4C103.528 154.533 103.875 152.8 103.962 150.2V61.8C103.875 59.2 103.528 57.51 102.922 56.73C102.315 55.8633 101.102 55.3867 99.2816 55.3L99.5416 54H122.812C126.105 54 128.965 54.91 131.392 56.73C133.818 58.55 135.638 60.9767 136.852 64.01C138.152 66.9567 138.802 70.0767 138.802 73.37C138.802 78.6567 137.285 83.2067 134.252 87.02C131.218 90.7467 126.885 92.5233 121.252 92.35H120.862L134.642 150.2C135.335 152.713 136.072 154.403 136.852 155.27C137.718 156.137 139.105 156.613 141.012 156.7L141.142 158ZM110.462 91.05H119.302C123.202 91.05 126.192 89.3167 128.272 85.85C130.438 82.3833 131.522 78.2233 131.522 73.37C131.522 68.6033 130.525 64.4433 128.532 60.89C126.625 57.25 123.982 55.3867 120.602 55.3H115.142C113.322 55.3867 112.108 55.8633 111.502 56.73C110.895 57.51 110.548 59.2 110.462 61.8V91.05ZM191.422 79.09H190.122C189.342 71.3767 188.562 66.0467 187.782 63.1C187.002 60.0667 185.659 58.03 183.752 56.99C181.932 55.95 178.769 55.3867 174.262 55.3V150.2C174.349 152.8 174.696 154.533 175.302 155.4C175.909 156.18 177.122 156.613 178.942 156.7L178.682 158H163.342L163.082 156.7C164.902 156.613 166.116 156.18 166.722 155.4C167.329 154.533 167.676 152.8 167.762 150.2V55.3C163.169 55.3867 159.919 55.95 158.012 56.99C156.106 57.9433 154.762 59.9367 153.982 62.97C153.202 66.0033 152.422 71.3767 151.642 79.09H150.342L152.032 54H189.732L191.422 79.09ZM237.011 79.09H235.711C234.931 71.2033 234.107 65.7867 233.241 62.84C232.461 59.8067 231.074 57.8133 229.081 56.86C227.087 55.82 223.664 55.3 218.811 55.3H213.091V88.32C216.211 88.32 218.247 88.1467 219.201 87.8C220.241 87.4533 220.761 86.5 220.761 84.94C220.761 83.9 220.327 81.43 219.461 77.53H220.761L230.381 113.67H229.081L226.481 104.44C225.181 99.5 224.141 96.12 223.361 94.3C222.667 92.48 221.714 91.2667 220.501 90.66C219.287 89.9667 217.337 89.62 214.651 89.62H213.091V150.2C213.177 152.8 213.524 154.533 214.131 155.4C214.737 156.18 215.951 156.613 217.771 156.7L217.511 158H202.171L201.911 156.7C203.731 156.613 204.944 156.18 205.551 155.4C206.157 154.533 206.504 152.8 206.591 150.2V61.8C206.504 59.2 206.157 57.51 205.551 56.73C204.944 55.8633 203.731 55.3867 201.911 55.3L202.171 54H235.321L237.011 79.09ZM266.205 52.83C272.445 52.83 276.908 54.78 279.595 58.68C282.368 62.58 283.755 68.6033 283.755 76.75V134.86C283.755 143.007 282.368 149.03 279.595 152.93C276.908 156.83 272.445 158.78 266.205 158.78C260.225 158.78 255.848 156.96 253.075 153.32C250.301 149.593 248.828 143.873 248.655 136.16V76.75C248.655 68.6033 250.041 62.58 252.815 58.68C255.588 54.78 260.051 52.83 266.205 52.83ZM277.255 76.75C277.255 71.29 276.951 67 276.345 63.88C275.825 60.6733 274.785 58.2467 273.225 56.6C271.665 54.9533 269.325 54.13 266.205 54.13C263.085 54.13 260.701 54.9533 259.055 56.6C257.495 58.16 256.411 60.5433 255.805 63.75C255.285 66.9567 255.068 71.29 255.155 76.75V136.16C255.068 143.787 255.761 149.247 257.235 152.54C258.795 155.833 261.785 157.48 266.205 157.48C269.325 157.48 271.665 156.657 273.225 155.01C274.785 153.363 275.825 150.98 276.345 147.86C276.951 144.653 277.255 140.32 277.255 134.86V76.75ZM320.03 113.67L331.34 158H293.12L292.86 156.7C294.68 156.613 295.893 156.18 296.5 155.4C297.106 154.533 297.453 152.8 297.54 150.2V61.8C297.453 59.2 297.106 57.51 296.5 56.73C295.893 55.8633 294.68 55.3867 292.86 55.3L293.12 54H308.46L308.72 55.3C306.9 55.3867 305.686 55.8633 305.08 56.73C304.473 57.51 304.126 59.2 304.04 61.8V156.7H317.17C320.81 156.7 323.28 156.353 324.58 155.66C325.966 154.967 326.66 153.32 326.66 150.72C326.66 148.727 326.27 145.91 325.49 142.27C324.796 138.63 323.496 132.997 321.59 125.37L318.73 113.67H320.03ZM352.942 150.2C353.029 152.8 353.375 154.533 353.982 155.4C354.589 156.18 355.802 156.613 357.622 156.7L357.362 158H342.022L341.762 156.7C343.582 156.613 344.795 156.18 345.402 155.4C346.009 154.533 346.355 152.8 346.442 150.2V61.8C346.355 59.2 346.009 57.51 345.402 56.73C344.795 55.8633 343.582 55.3867 341.762 55.3L342.022 54H357.362L357.622 55.3C355.802 55.3867 354.589 55.8633 353.982 56.73C353.375 57.51 353.029 59.2 352.942 61.8V150.2ZM386.886 52.83C393.126 52.83 397.59 54.78 400.276 58.68C403.05 62.58 404.436 68.6033 404.436 76.75V134.86C404.436 143.007 403.05 149.03 400.276 152.93C397.59 156.83 393.126 158.78 386.886 158.78C380.906 158.78 376.53 156.96 373.756 153.32C370.983 149.593 369.51 143.873 369.336 136.16V76.75C369.336 68.6033 370.723 62.58 373.496 58.68C376.27 54.78 380.733 52.83 386.886 52.83ZM397.936 76.75C397.936 71.29 397.633 67 397.026 63.88C396.506 60.6733 395.466 58.2467 393.906 56.6C392.346 54.9533 390.006 54.13 386.886 54.13C383.766 54.13 381.383 54.9533 379.736 56.6C378.176 58.16 377.093 60.5433 376.486 63.75C375.966 66.9567 375.75 71.29 375.836 76.75V136.16C375.75 143.787 376.443 149.247 377.916 152.54C379.476 155.833 382.466 157.48 386.886 157.48C390.006 157.48 392.346 156.657 393.906 155.01C395.466 153.363 396.506 150.98 397.026 147.86C397.633 144.653 397.936 140.32 397.936 134.86V76.75Z" 
fill="#BDF574"/><g style="mix-blend-mode:luminosity">
<rect x="99" y="115" width="210" height="167" rx="30" fill="#D9D9D9"/></g>
<g style="mix-blend-mode:luminosity">
<rect x="99" y="136" width="210" height="167" rx="30" fill="white"/>
</g><g style="mix-blend-mode:difference">
<path d="M246.94 285.84C248.22 284.773 249.24 283.887 250 283.18C250.76 282.46 251.393 281.713 251.9 280.94C252.407 280.167 252.66 279.407 252.66 278.66C252.66 277.98 252.5 277.447 252.18 277.06C251.86 276.673 251.367 276.48 250.7 276.48C250.033 276.48 249.52 276.707 249.16 277.16C248.8 277.6 248.613 278.207 248.6 278.98H245.88C245.933 277.38 246.407 276.167 247.3 275.34C248.207 274.513 249.353 274.1 250.74 274.1C252.26 274.1 253.427 274.507 254.24 275.32C255.053 276.12 255.46 277.18 255.46 278.5C255.46 279.54 255.18 280.533 254.62 281.48C254.06 282.427 253.42 283.253 252.7 283.96C251.98 284.653 251.04 285.493 249.88 286.48H255.78V288.8H245.9V286.72L246.94 285.84ZM257.544 281.52C257.544 279.213 257.958 277.407 258.784 276.1C259.624 274.793 261.011 274.14 262.944 274.14C264.878 274.14 266.258 274.793 267.084 276.1C267.924 277.407 268.344 279.213 268.344 281.52C268.344 283.84 267.924 285.66 267.084 286.98C266.258 288.3 264.878 288.96 262.944 288.96C261.011 288.96 259.624 288.3 258.784 286.98C257.958 285.66 257.544 283.84 257.544 281.52ZM265.584 281.52C265.584 280.533 265.518 279.707 265.384 279.04C265.264 278.36 265.011 277.807 264.624 277.38C264.251 276.953 263.691 276.74 262.944 276.74C262.198 276.74 261.631 276.953 261.244 277.38C260.871 277.807 260.618 278.36 260.484 279.04C260.364 279.707 260.304 280.533 260.304 281.52C260.304 282.533 260.364 283.387 260.484 284.08C260.604 284.76 260.858 285.313 261.244 285.74C261.631 286.153 262.198 286.36 262.944 286.36C263.691 286.36 264.258 286.153 264.644 285.74C265.031 285.313 265.284 284.76 265.404 284.08C265.524 283.387 265.584 282.533 265.584 281.52ZM271.354 285.84C272.634 284.773 273.654 283.887 274.414 283.18C275.174 282.46 275.807 281.713 276.314 280.94C276.821 280.167 277.074 279.407 277.074 278.66C277.074 277.98 276.914 277.447 276.594 277.06C276.274 276.673 275.781 276.48 275.114 276.48C274.447 276.48 273.934 276.707 273.574 277.16C273.214 277.6 273.027 278.207 273.014 278.98H270.294C270.347 277.38 270.821 276.167 271.714 275.34C272.621 274.513 273.767 274.1 275.154 274.1C276.674 274.1 277.841 274.507 278.654 275.32C279.467 276.12 279.874 277.18 279.874 278.5C279.874 279.54 279.594 280.533 279.034 281.48C278.474 282.427 277.834 283.253 277.114 283.96C276.394 284.653 275.454 285.493 274.294 286.48H280.194V288.8H270.314V286.72L271.354 285.84ZM281.838 286.16V283.96L288.378 274.6H291.638V283.72H293.398V286.16H291.638V289H288.838V286.16H281.838ZM289.018 277.6L284.918 283.72H289.018V277.6Z" 
fill="#BDF574"/></g>
</svg>
