<svg width="454" height="325" viewBox="0 0 454 325" fill="none" xmlns="http://www.w3.org/2000/svg">
<g style="mix-blend-mode:luminosity">
<rect x="90" y="147" width="261" height="167" rx="27" fill="#D9D9D9"/>
</g>
<path d="M183.802 136L210.955 147.786L227 191H90V163.009C91.5065 144.152 106.007 137.146 113.069 136H183.802Z" fill="#D9D9D9"/>
<path d="M29.186 61C32.8593 61 36.0494 62.015 38.756 64.045C41.4627 66.075 43.4927 68.7817 44.846 72.165C46.296 75.4517 47.021 78.9317 47.021 82.605C47.021 88.5017 45.3293 93.5767 41.946 97.83C38.5627 101.987 33.7294 103.968 27.446 103.775H15.411V168.3C15.5077 171.2 15.8944 173.133 16.571 174.1C17.2477 174.97 18.601 175.453 20.631 175.55L20.341 177H3.23102L2.94102 175.55C4.97102 175.453 6.32435 174.97 7.00102 174.1C7.67768 173.133 8.06435 171.2 8.16102 168.3V69.7C8.06435 66.8 7.67768 64.915 7.00102 64.045C6.32435 63.0783 4.97102 62.5467 2.94102 62.45L3.23102 61H29.186ZM25.271 102.325C29.621 102.325 32.956 100.392 35.276 96.525C37.6927 92.6583 38.901 88.0183 38.901 82.605C38.901 77.2883 37.7893 72.6483 35.566 68.685C33.4393 64.625 30.491 62.5467 26.721 62.45H20.631C18.601 62.5467 17.2477 63.0783 16.571 64.045C15.8944 64.915 15.5077 66.8 15.411 69.7V102.325H25.271ZM81.0258 59.695C87.9858 59.695 92.9641 61.87 95.9608 66.22C99.0541 70.57 100.601 77.2883 100.601 86.375V151.19C100.601 160.277 99.0541 166.995 95.9608 171.345C92.9641 175.695 87.9858 177.87 81.0258 177.87C74.3558 177.87 69.4741 175.84 66.3808 171.78C63.2874 167.623 61.6441 161.243 61.4508 152.64V86.375C61.4508 77.2883 62.9974 70.57 66.0908 66.22C69.1841 61.87 74.1624 59.695 81.0258 59.695ZM93.3508 86.375C93.3508 80.285 93.0124 75.5 92.3358 72.02C91.7558 68.4433 90.5958 65.7367 88.8558 63.9C87.1158 62.0633 84.5058 61.145 81.0258 61.145C77.5458 61.145 74.8874 62.0633 73.0508 63.9C71.3108 65.64 70.1024 68.2983 69.4258 71.875C68.8458 75.4517 68.6041 80.285 68.7008 86.375V152.64C68.6041 161.147 69.3774 167.237 71.0208 170.91C72.7608 174.583 76.0958 176.42 81.0258 176.42C84.5058 176.42 87.1158 175.502 88.8558 173.665C90.5958 171.828 91.7558 169.17 92.3358 165.69C93.0124 162.113 93.3508 157.28 93.3508 151.19V86.375ZM157.446 177H140.336L139.611 175.55C141.061 175.453 142.076 175.212 142.656 174.825C143.333 174.342 143.671 173.568 143.671 172.505C143.671 172.118 143.575 171.345 143.381 170.185L127.431 103.775H123.226V168.3C123.323 171.2 123.71 173.133 124.386 174.1C125.063 174.97 126.416 175.453 128.446 175.55L128.156 177H111.046L110.756 175.55C112.786 175.453 114.14 174.97 114.816 174.1C115.493 173.133 115.88 171.2 115.976 168.3V69.7C115.88 66.8 115.493 64.915 114.816 64.045C114.14 63.0783 112.786 62.5467 110.756 62.45L111.046 61H137.001C140.675 61 143.865 62.015 146.571 64.045C149.278 66.075 151.308 68.7817 152.661 72.165C154.111 75.4517 154.836 78.9317 154.836 82.605C154.836 88.5017 153.145 93.5767 149.761 97.83C146.378 101.987 141.545 103.968 135.261 103.775H134.826L150.196 168.3C150.97 171.103 151.791 172.988 152.661 173.955C153.628 174.922 155.175 175.453 157.301 175.55L157.446 177ZM123.226 102.325H133.086C137.436 102.325 140.771 100.392 143.091 96.525C145.508 92.6583 146.716 88.0183 146.716 82.605C146.716 77.2883 145.605 72.6483 143.381 68.685C141.255 64.625 138.306 62.5467 134.536 62.45H128.446C126.416 62.5467 125.063 63.0783 124.386 64.045C123.71 64.915 123.323 66.8 123.226 69.7V102.325ZM213.529 88.985H212.079C211.209 80.3817 210.339 74.4367 209.469 71.15C208.599 67.7667 207.1 65.495 204.974 64.335C202.944 63.175 199.415 62.5467 194.389 62.45V168.3C194.485 171.2 194.872 173.133 195.549 174.1C196.225 174.97 197.579 175.453 199.609 175.55L199.319 177H182.209L181.919 175.55C183.949 175.453 185.302 174.97 185.979 174.1C186.655 173.133 187.042 171.2 187.139 168.3V62.45C182.015 62.5467 178.39 63.175 176.264 64.335C174.137 65.3983 172.639 67.6217 171.769 71.005C170.899 74.3883 170.029 80.3817 169.159 88.985H167.709L169.594 61H211.644L213.529 88.985ZM264.377 88.985H262.927C262.057 80.1883 261.139 74.1467 260.172 70.86C259.302 67.4767 257.755 65.2533 255.532 64.19C253.309 63.03 249.49 62.45 244.077 62.45H237.697V99.28C241.177 99.28 243.449 99.0867 244.512 98.7C245.672 98.3133 246.252 97.25 246.252 95.51C246.252 94.35 245.769 91.595 244.802 87.245H246.252L256.982 127.555H255.532L252.632 117.26C251.182 111.75 250.022 107.98 249.152 105.95C248.379 103.92 247.315 102.567 245.962 101.89C244.609 101.117 242.434 100.73 239.437 100.73H237.697V168.3C237.794 171.2 238.18 173.133 238.857 174.1C239.534 174.97 240.887 175.453 242.917 175.55L242.627 177H225.517L225.227 175.55C227.257 175.453 228.61 174.97 229.287 174.1C229.964 173.133 230.35 171.2 230.447 168.3V69.7C230.35 66.8 229.964 64.915 229.287 64.045C228.61 63.0783 227.257 62.5467 225.227 62.45L225.517 61H262.492L264.377 88.985ZM296.94 59.695C303.9 59.695 308.878 61.87 311.875 66.22C314.968 70.57 316.515 77.2883 316.515 86.375V151.19C316.515 160.277 314.968 166.995 311.875 171.345C308.878 175.695 303.9 177.87 296.94 177.87C290.27 177.87 285.388 175.84 282.295 171.78C279.202 167.623 277.558 161.243 277.365 152.64V86.375C277.365 77.2883 278.912 70.57 282.005 66.22C285.098 61.87 290.077 59.695 296.94 59.695ZM309.265 86.375C309.265 80.285 308.927 75.5 308.25 72.02C307.67 68.4433 306.51 65.7367 304.77 63.9C303.03 62.0633 300.42 61.145 296.94 61.145C293.46 61.145 290.802 62.0633 288.965 63.9C287.225 65.64 286.017 68.2983 285.34 71.875C284.76 75.4517 284.518 80.285 284.615 86.375V152.64C284.518 161.147 285.292 167.237 286.935 170.91C288.675 174.583 292.01 176.42 296.94 176.42C300.42 176.42 303.03 175.502 304.77 173.665C306.51 171.828 307.67 169.17 308.25 165.69C308.927 162.113 309.265 157.28 309.265 151.19V86.375ZM356.976 127.555L369.591 177H326.961L326.671 175.55C328.701 175.453 330.054 174.97 330.731 174.1C331.407 173.133 331.794 171.2 331.891 168.3V69.7C331.794 66.8 331.407 64.915 330.731 64.045C330.054 63.0783 328.701 62.5467 326.671 62.45L326.961 61H344.071L344.361 62.45C342.331 62.5467 340.977 63.0783 340.301 64.045C339.624 64.915 339.237 66.8 339.141 69.7V175.55H353.786C357.846 175.55 360.601 175.163 362.051 174.39C363.597 173.617 364.371 171.78 364.371 168.88C364.371 166.657 363.936 163.515 363.066 159.455C362.292 155.395 360.842 149.112 358.716 140.605L355.526 127.555H356.976ZM393.685 168.3C393.782 171.2 394.169 173.133 394.845 174.1C395.522 174.97 396.875 175.453 398.905 175.55L398.615 177H381.505L381.215 175.55C383.245 175.453 384.599 174.97 385.275 174.1C385.952 173.133 386.339 171.2 386.435 168.3V69.7C386.339 66.8 385.952 64.915 385.275 64.045C384.599 63.0783 383.245 62.5467 381.215 62.45L381.505 61H398.615L398.905 62.45C396.875 62.5467 395.522 63.0783 394.845 64.045C394.169 64.915 393.782 66.8 393.685 69.7V168.3ZM431.546 59.695C438.506 59.695 443.485 61.87 446.481 66.22C449.575 70.57 451.121 77.2883 451.121 86.375V151.19C451.121 160.277 449.575 166.995 446.481 171.345C443.485 175.695 438.506 177.87 431.546 177.87C424.876 177.87 419.995 175.84 416.901 171.78C413.808 167.623 412.165 161.243 411.971 152.64V86.375C411.971 77.2883 413.518 70.57 416.611 66.22C419.705 61.87 424.683 59.695 431.546 59.695ZM443.871 86.375C443.871 80.285 443.533 75.5 442.856 72.02C442.276 68.4433 441.116 65.7367 439.376 63.9C437.636 62.0633 435.026 61.145 431.546 61.145C428.066 61.145 425.408 62.0633 423.571 63.9C421.831 65.64 420.623 68.2983 419.946 71.875C419.366 75.4517 419.125 80.285 419.221 86.375V152.64C419.125 161.147 419.898 167.237 421.541 170.91C423.281 174.583 426.616 176.42 431.546 176.42C435.026 176.42 437.636 175.502 439.376 173.665C441.116 171.828 442.276 169.17 442.856 165.69C443.533 162.113 443.871 157.28 443.871 151.19V86.375Z" fill="#BDF574"/>
<g style="mix-blend-mode:luminosity">
<rect x="90" y="158" width="261" height="167" rx="20" fill="white"/>
</g>
<g style="mix-blend-mode:difference">
<path d="M288.94 307.84C290.22 306.773 291.24 305.887 292 305.18C292.76 304.46 293.393 303.713 293.9 302.94C294.407 302.167 294.66 301.407 294.66 300.66C294.66 299.98 294.5 299.447 294.18 299.06C293.86 298.673 293.367 298.48 292.7 298.48C292.033 298.48 291.52 298.707 291.16 299.16C290.8 299.6 290.613 300.207 290.6 300.98H287.88C287.933 299.38 288.407 298.167 289.3 297.34C290.207 296.513 291.353 296.1 292.74 296.1C294.26 296.1 295.427 296.507 296.24 297.32C297.053 298.12 297.46 299.18 297.46 300.5C297.46 301.54 297.18 302.533 296.62 303.48C296.06 304.427 295.42 305.253 294.7 305.96C293.98 306.653 293.04 307.493 291.88 308.48H297.78V310.8H287.9V308.72L288.94 307.84ZM299.544 303.52C299.544 301.213 299.958 299.407 300.784 298.1C301.624 296.793 303.011 296.14 304.944 296.14C306.878 296.14 308.258 296.793 309.084 298.1C309.924 299.407 310.344 301.213 310.344 303.52C310.344 305.84 309.924 307.66 309.084 308.98C308.258 310.3 306.878 310.96 304.944 310.96C303.011 310.96 301.624 310.3 300.784 308.98C299.958 307.66 299.544 305.84 299.544 303.52ZM307.584 303.52C307.584 302.533 307.518 301.707 307.384 301.04C307.264 300.36 307.011 299.807 306.624 299.38C306.251 298.953 305.691 298.74 304.944 298.74C304.198 298.74 303.631 298.953 303.244 299.38C302.871 299.807 302.618 300.36 302.484 301.04C302.364 301.707 302.304 302.533 302.304 303.52C302.304 304.533 302.364 305.387 302.484 306.08C302.604 306.76 302.858 307.313 303.244 307.74C303.631 308.153 304.198 308.36 304.944 308.36C305.691 308.36 306.258 308.153 306.644 307.74C307.031 307.313 307.284 306.76 307.404 306.08C307.524 305.387 307.584 304.533 307.584 303.52ZM313.354 307.84C314.634 306.773 315.654 305.887 316.414 305.18C317.174 304.46 317.807 303.713 318.314 302.94C318.821 302.167 319.074 301.407 319.074 300.66C319.074 299.98 318.914 299.447 318.594 299.06C318.274 298.673 317.781 298.48 317.114 298.48C316.447 298.48 315.934 298.707 315.574 299.16C315.214 299.6 315.027 300.207 315.014 300.98H312.294C312.347 299.38 312.821 298.167 313.714 297.34C314.621 296.513 315.767 296.1 317.154 296.1C318.674 296.1 319.841 296.507 320.654 297.32C321.467 298.12 321.874 299.18 321.874 300.5C321.874 301.54 321.594 302.533 321.034 303.48C320.474 304.427 319.834 305.253 319.114 305.96C318.394 306.653 317.454 307.493 316.294 308.48H322.194V310.8H312.314V308.72L313.354 307.84ZM323.838 308.16V305.96L330.378 296.6H333.638V305.72H335.398V308.16H333.638V311H330.838V308.16H323.838ZM331.018 299.6L326.918 305.72H331.018V299.6Z" fill="#BDF574"/>
</g>
</svg>
