<svg width="235" height="92" viewBox="0 0 235 92" fill="none" xmlns="http://www.w3.org/2000/svg">
<path d="M214.611 70.5281H175.699L168.531 90.3681H156.243L188.499 1.66406H201.939L234.067 90.3681H221.779L214.611 70.5281ZM211.283 61.0561L195.155 16.0001L179.027 61.0561H211.283Z" fill="#403F3C"/>
<path d="M115.038 91.264C109.15 91.264 103.859 90.24 99.166 88.192C94.558 86.0587 90.9313 83.1573 88.286 79.488C85.6407 75.7333 84.2753 71.424 84.19 66.56H96.606C97.0327 70.7413 98.7393 74.2827 101.726 77.184C104.798 80 109.235 81.408 115.038 81.408C120.585 81.408 124.937 80.0427 128.094 77.312C131.337 74.496 132.958 70.912 132.958 66.56C132.958 63.1467 132.019 60.3733 130.142 58.24C128.265 56.1067 125.918 54.4853 123.102 53.376C120.286 52.2667 116.489 51.072 111.71 49.792C105.822 48.256 101.086 46.72 97.502 45.184C94.0033 43.648 90.974 41.2587 88.414 38.016C85.9393 34.688 84.702 30.2507 84.702 24.704C84.702 19.84 85.9393 15.5307 88.414 11.776C90.8887 8.02133 94.3447 5.12 98.782 3.072C103.305 1.024 108.467 0 114.27 0C122.633 0 129.459 2.09067 134.75 6.272C140.126 10.4533 143.155 16 143.838 22.912H131.038C130.611 19.4987 128.819 16.512 125.662 13.952C122.505 11.3067 118.323 9.984 113.118 9.984C108.254 9.984 104.286 11.264 101.214 13.824C98.142 16.2987 96.606 19.7973 96.606 24.32C96.606 27.5627 97.502 30.208 99.294 32.256C101.171 34.304 103.433 35.8827 106.078 36.992C108.809 38.016 112.606 39.2107 117.47 40.576C123.358 42.1973 128.094 43.8187 131.678 45.44C135.262 46.976 138.334 49.408 140.894 52.736C143.454 55.9787 144.734 60.416 144.734 66.048C144.734 70.4 143.582 74.496 141.278 78.336C138.974 82.176 135.561 85.2907 131.038 87.68C126.515 90.0693 121.182 91.264 115.038 91.264Z" fill="#403F3C"/>
<path d="M66.898 1.15198V90.368H55.25V1.15198H66.898Z" fill="#403F3C"/>
<path d="M11.648 80.896H42.88V90.368H0V1.15198H11.648V80.896Z" fill="#403F3C"/>
</svg>
