<svg width="399" height="65" viewBox="0 0 399 65" fill="none" xmlns="http://www.w3.org/2000/svg">
<path d="M398.505 1.4502V64.0002H388.245V21.1602L369.165 64.0002H362.055L342.885 21.1602V64.0002H332.625V1.4502H343.695L365.655 50.5002L387.525 1.4502H398.505Z" fill="#403F3C"/>
<path d="M290.579 64.6301C284.759 64.6301 279.389 63.2801 274.469 60.5801C269.609 57.8201 265.739 54.0101 262.859 49.1501C260.039 44.2301 258.629 38.7101 258.629 32.5901C258.629 26.4701 260.039 20.9801 262.859 16.1201C265.739 11.2601 269.609 7.48014 274.469 4.78014C279.389 2.02014 284.759 0.640137 290.579 0.640137C296.459 0.640137 301.829 2.02014 306.689 4.78014C311.609 7.48014 315.479 11.2601 318.299 16.1201C321.119 20.9801 322.529 26.4701 322.529 32.5901C322.529 38.7101 321.119 44.2301 318.299 49.1501C315.479 54.0101 311.609 57.8201 306.689 60.5801C301.829 63.2801 296.459 64.6301 290.579 64.6301ZM290.579 55.7201C294.719 55.7201 298.409 54.7901 301.649 52.9301C304.889 51.0101 307.409 48.3101 309.209 44.8301C311.069 41.2901 311.999 37.2101 311.999 32.5901C311.999 27.9701 311.069 23.9201 309.209 20.4401C307.409 16.9601 304.889 14.2901 301.649 12.4301C298.409 10.5701 294.719 9.64014 290.579 9.64014C286.439 9.64014 282.749 10.5701 279.509 12.4301C276.269 14.2901 273.719 16.9601 271.859 20.4401C270.059 23.9201 269.159 27.9701 269.159 32.5901C269.159 37.2101 270.059 41.2901 271.859 44.8301C273.719 48.3101 276.269 51.0101 279.509 52.9301C282.749 54.7901 286.439 55.7201 290.579 55.7201Z" fill="#403F3C"/>
<path d="M228.342 64.6301C224.142 64.6301 220.362 63.9101 217.002 62.4701C213.642 60.9701 211.002 58.8701 209.082 56.1701C207.162 53.4701 206.202 50.3201 206.202 46.7201H217.182C217.422 49.4201 218.472 51.6401 220.332 53.3801C222.252 55.1201 224.922 55.9901 228.342 55.9901C231.882 55.9901 234.642 55.1501 236.622 53.4701C238.602 51.7301 239.592 49.5101 239.592 46.8101C239.592 44.7101 238.962 43.0001 237.702 41.6801C236.502 40.3601 234.972 39.3401 233.112 38.6201C231.312 37.9001 228.792 37.1201 225.552 36.2801C221.472 35.2001 218.142 34.1201 215.562 33.0401C213.042 31.9001 210.882 30.1601 209.082 27.8201C207.282 25.4801 206.382 22.3601 206.382 18.4601C206.382 14.8601 207.282 11.7101 209.082 9.01014C210.882 6.31014 213.402 4.24014 216.642 2.80014C219.882 1.36014 223.632 0.640137 227.892 0.640137C233.952 0.640137 238.902 2.17014 242.742 5.23014C246.642 8.23014 248.802 12.3701 249.222 17.6501H237.882C237.702 15.3701 236.622 13.4201 234.642 11.8001C232.662 10.1801 230.052 9.37014 226.812 9.37014C223.872 9.37014 221.472 10.1201 219.612 11.6201C217.752 13.1201 216.822 15.2801 216.822 18.1001C216.822 20.0201 217.392 21.6101 218.532 22.8701C219.732 24.0701 221.232 25.0301 223.032 25.7501C224.832 26.4701 227.292 27.2501 230.412 28.0901C234.552 29.2301 237.912 30.3701 240.492 31.5101C243.132 32.6501 245.352 34.4201 247.152 36.8201C249.012 39.1601 249.942 42.3101 249.942 46.2701C249.942 49.4501 249.072 52.4501 247.332 55.2701C245.652 58.0901 243.162 60.3701 239.862 62.1101C236.622 63.7901 232.782 64.6301 228.342 64.6301Z" fill="#403F3C"/>
<path d="M194.259 64.0001H183.999L153.129 17.2901V64.0001H142.869V1.36011H153.129L183.999 47.9801V1.36011H194.259V64.0001Z" fill="#403F3C"/>
<path d="M117.825 51.2201H91.6352L87.1352 64.0001H76.4252L98.8352 1.36011H110.715L133.125 64.0001H122.325L117.825 51.2201ZM114.945 42.8501L104.775 13.7801L94.5152 42.8501H114.945Z" fill="#403F3C"/>
<path d="M66.63 1.4502V64.0002H56.37V21.1602L37.29 64.0002H30.18L11.01 21.1602V64.0002H0.75V1.4502H11.82L33.78 50.5002L55.65 1.4502H66.63Z" fill="#403F3C"/>
</svg>
